<?xml version="1.0" encoding="UTF-8"?>
<svg width="1024px" height="1024px" viewBox="0 0 1024 1024" version="1.1" xmlns="http://www.w3.org/2000/svg" xmlns:xlink="http://www.w3.org/1999/xlink">
    <!-- Generator: Sketch 51.3 (57544) - http://www.bohemiancoding.com/sketch -->
    <title>radishx</title>
    <desc>Created with Sketch.</desc>
    <defs>
        <polygon id="path-1" points="0.0007952834 0.376287703 843.842864 0.376287703 843.842864 601.815317 0.0007952834 601.815317"></polygon>
        <polygon id="path-3" points="1.58923326 1.85027951 175.108677 1.85027951 175.108677 165.661253 1.58923326 165.661253"></polygon>
    </defs>
    <g id="radishx" stroke="none" stroke-width="1" fill="none" fill-rule="evenodd">
        <g id="Radish" transform="translate(2.000000, 2.000000)">
            <g id="Group-23" transform="translate(0.000000, 165.661253)">
                <g id="Group-17" transform="translate(0.000000, 1.990302)">
                    <g id="Group-3">
                        <mask id="mask-2" fill="white">
                            <use xlink:href="#path-1"></use>
                        </mask>
                        <g id="Clip-2"></g>
                        <path d="M269.478084,208.813406 C278.733814,211.624914 302.934557,221.162269 338.499661,250.711503 C327.592051,245.985425 314.639708,244.454241 307.161285,243.96909 C303.400775,239.969555 297.086715,234.985517 287.310334,232.022548 C281.852979,230.368302 275.851309,229.528162 269.47335,229.528162 C267.608478,229.528162 265.857202,229.601527 264.255021,229.715123 C261.564209,225.746353 257.427411,221.290065 251.172515,217.489323 C259.188153,214.959439 265.424116,211.485285 269.478084,208.813406 M745.408664,475.681852 C739.338362,465.12923 735.111633,449.878928 732.856274,431.580459 C730.716877,414.214427 731.223327,399.063522 731.407921,396.446074 C737.951541,342.544636 728.743142,288.636097 705.392005,244.631735 C679.219893,195.304914 637.300497,161.216561 584.130334,146.05619 C565.507643,140.74793 546.520497,138.057118 527.682445,138.057118 C474.748942,138.057118 430.164766,158.376654 397.863188,195.756933 C392.578594,182.745425 380.788246,163.412756 374.386622,153.30032 C377.434789,146.936561 380.357527,136.87619 379.299661,122.565425 C377.986204,104.839671 366.515346,93.3877448 356.391077,87.3766079 C356.047921,79.3704362 353.73813,67.3386961 344.830288,54.6963759 C333.678919,38.8662599 316.563745,34.4289049 307.263049,33.1935452 C301.199847,25.4405986 288.065276,11.7569791 269.513582,9.53238515 C267.892469,9.33832483 266.242956,9.23892807 264.605276,9.23892807 C241.64936,9.23892807 225.911541,27.887652 224.19103,30.0128492 L217.711309,38.0284872 C206.770566,34.1780464 197.200079,34.3318747 191.05878,34.7720603 C179.687318,24.5554942 148.10755,0.376051044 112.362585,0.376051044 L111.825369,0.376051044 C87.3382691,0.376051044 72.7222135,15.382594 65.9798005,25.2181392 C64.1338608,25.1045429 62.0488956,24.3022691 59.781703,24.3022691 C31.1980371,24.3022691 11.1956241,35.9103898 3.4639768,57.1718283 C-4.63685847,79.4319675 2.95752668,95.8371647 11.0630951,104.721341 C10.2750209,114.100135 11.5151137,130.129044 25.4448585,144.058789 C34.333768,152.947698 45.2934432,156.064497 53.0747889,157.112896 C58.2339536,169.078371 71.2643944,189.667698 101.436042,197.139021 C111.486947,199.626306 121.18523,200.885332 130.265833,200.885332 C148.789128,200.885332 161.814835,195.801898 170.190195,190.746863 C175.079568,196.899995 182.295299,204.340552 191.962817,210.287791 C171.051633,213.875541 159.464812,222.210668 154.253582,227.135541 C145.76936,229.556561 127.515856,237.179346 119.010334,259.202826 C110.225555,281.969415 124.962306,301.751735 136.719522,311.31749 C139.935717,317.52742 148.337109,330.096376 166.410752,337.842223 C171.124998,339.86329 176.542121,340.885657 182.517759,340.885657 C188.952515,340.885657 195.058316,339.709462 199.632933,338.500135 C205.040589,342.864125 213.957898,347.476608 227.478223,347.476608 C239.18574,347.476608 256.33168,346.579671 269.994,338.838557 C281.306297,332.427466 299.571633,316.280227 315.946065,301.330483 L316.246622,301.053592 C319.240357,298.736701 333.451726,296.263615 349.979986,296.202084 C338.099708,349.000691 341.176274,404.750436 358.937527,451.376979 C381.315995,510.115726 423.770241,550.132385 481.716181,567.105564 C488.728385,569.157397 497.399568,570.198696 507.485972,570.198696 C545.164441,570.198696 594.320868,555.989694 632.536552,534.094009 C634.200265,533.298835 642.322399,531.112107 653.760125,531.112107 C655.348107,531.112107 656.988153,531.154705 658.668432,531.244636 C665.645137,531.620923 672.432515,532.484729 678.841239,534.415865 C737.187132,552.013824 808.944487,592.352339 809.656831,592.813824 C817.544673,597.939856 838.358826,607.029926 842.545323,597.949323 C846.734186,588.868719 840.315995,581.622223 829.964534,572.984172 C826.225323,569.865007 776.631077,529.957211 745.408664,475.681852" id="Fill-1" fill="#000000" mask="url(#mask-2)"></path>
                    </g>
                    <path d="M367.629063,233.773587 C367.629063,233.773587 291.569248,154.204121 288.019364,148.287647 C284.46948,142.371174 260.21194,80.8398515 228.262984,57.7656056 C206.424097,41.9922877 186.256023,47.1159536 186.256023,47.1159536 C186.256023,47.1159536 150.757183,10.8740046 111.116812,11.1532622 C83.4182506,11.3473225 71.4764408,37.6495963 71.4764408,37.6495963 C71.4764408,37.6495963 25.6024733,29.4469977 13.790826,61.9071369 C4.07124362,88.6235638 22.9613596,100.955861 22.9613596,100.955861 C22.9613596,100.955861 17.0448863,120.480223 33.0193643,136.454701 C44.2606636,147.696 60.8267889,146.512705 60.8267889,146.512705 C60.8267889,146.512705 67.5124037,177.526858 103.491661,186.437067 C152.532125,198.577671 172.056487,174.32013 172.056487,174.32013 C172.056487,174.32013 190.096998,209.81897 228.558807,209.81897 C251.633053,209.81897 266.128413,196.802729 266.128413,196.802729 C266.128413,196.802729 300.550455,201.618738 358.531893,253.88013 C358.531893,253.88013 361.513796,246.792195 362.765722,244.134515 C363.669759,242.219944 367.629063,233.773587 367.629063,233.773587" id="Fill-4" fill="#7BC143"></path>
                    <path d="M373.808937,221.169842 C373.808937,221.169842 313.85613,162.095039 306.361142,147.895503 C298.866153,133.695968 279.145364,95.042464 263.762534,73.3479397 C248.379703,51.6534153 232.601652,38.2419536 232.601652,38.2419536 C232.601652,38.2419536 247.591629,19.7044594 267.312418,22.0710487 C287.033206,24.4376381 300.049448,45.3417216 300.049448,45.3417216 C300.049448,45.3417216 322.139193,44.9465012 334.364993,62.3030673 C346.59316,79.6572668 343.438497,95.4353179 343.438497,95.4353179 C343.438497,95.4353179 365.130654,102.930306 366.709169,124.22961 C368.287684,145.528914 359.609401,154.204831 359.609401,154.204831 C359.609401,154.204831 382.200863,188.681304 387.28193,204.102 C387.28193,204.102 382.925039,209.365295 381.159564,211.211234 C379.192928,213.270167 373.808937,221.169842 373.808937,221.169842" id="Fill-6" fill="#7BC143"></path>
                    <path d="M355.27026,266.224023 C355.27026,266.224023 351.720376,279.240265 350.537081,285.156738 C350.537081,285.156738 316.616756,284.761517 307.543253,293.04458 C298.472116,301.327643 275.201443,322.626947 263.368497,329.333861 C251.53555,336.038408 235.374111,336.433629 226.686362,336.433629 C208.541722,336.433629 202.230028,325.783977 202.230028,325.783977 C202.230028,325.783977 183.479541,333.411494 170.281072,327.755346 C150.955503,319.472283 145.431884,304.484673 145.431884,304.484673 C145.431884,304.484673 120.582696,286.735253 129.260979,264.252654 C137.939262,241.770056 159.63142,238.613026 159.63142,238.613026 C159.63142,238.613026 172.650028,221.168896 212.486826,221.168896 C252.323624,221.168896 256.661582,243.346204 256.661582,243.346204 C256.661582,243.346204 270.073044,240.191541 283.089285,244.136645 C296.105527,248.079383 300.443485,256.362445 300.443485,256.362445 C300.443485,256.362445 328.054483,256.492608 340.28265,266.619244 L355.27026,266.224023 Z" id="Fill-8" fill="#7BC143"></path>
                    <path d="M626.044998,524.518552 C572.974232,554.915026 510.971958,564.36245 484.250798,556.536139 C367.476181,522.336557 334.206668,391.639295 364.342817,285.156974 C399.841657,159.72774 500.932886,135.65006 580.116599,158.227323 C686.998872,188.699527 731.164162,295.806626 718.938362,395.991452 C718.791633,397.191313 718.031958,413.816603 720.495578,433.81665 C722.481146,449.909457 726.554046,468.186626 734.714046,482.371963 C767.472376,539.319202 827.801471,587.685188 827.801471,587.685188 C827.801471,587.685188 741.612654,542.320037 681.465787,524.182497 C673.488014,521.778042 665.668803,520.604213 658.51697,520.218459 C642.357898,519.342821 629.590148,522.490385 626.044998,524.518552" id="Fill-10" fill="#D74747"></path>
                    <path d="M658.51626,520.217513 C665.668093,520.603267 673.487304,521.777095 681.465077,524.183916 C741.611944,542.321457 827.800761,587.686608 827.800761,587.686608 C827.800761,587.686608 767.471666,539.318255 734.713336,482.373383 C726.553336,468.188046 722.480436,449.90851 720.494868,433.815703 C720.494868,433.815703 693.513383,429.399647 672.39394,458.70749 C653.066005,485.528046 658.51626,520.217513 658.51626,520.217513" id="Fill-12" fill="#FFF2F2"></path>
                    <g id="Group-16" transform="translate(844.872390, 520.649652)">
                        <mask id="mask-4" fill="white">
                            <use xlink:href="#path-3"></use>
                        </mask>
                        <g id="Clip-15"></g>
                        <path d="M98.3048074,50.837652 C106.116919,41.0257726 112.785968,32.3356566 119.798172,23.9318979 C126.393856,16.0274896 133.652186,8.70999536 143.201374,4.36967053 C154.584668,-0.801327146 166.209355,2.78878886 171.891536,12.8941253 C177.928705,23.6266079 175.150329,40.0318051 166.223555,46.3458654 C156.619935,53.1450766 148.438636,49.368 139.374599,33.0976984 C125.922905,46.1683712 115.999796,61.555935 105.307545,76.2879536 C104.308845,77.6653086 104.173949,80.1336613 104.507638,81.9322691 C107.304947,97.0098097 108.997058,112.383174 115.112325,126.637142 C116.567777,130.030831 117.994831,135.059833 122.950469,134.061132 C127.59135,133.131063 127.577151,128.139926 127.941606,124.346283 C128.43149,119.255749 128.395991,114.110784 128.450422,108.984752 C128.502487,104.618394 129.884575,101.006979 134.511258,100.114775 C139.23497,99.2012715 142.756455,101.151341 145.156176,105.574497 C154.284111,122.441179 144.171675,154.390135 126.926339,162.756028 C113.406014,169.316213 97.961652,164.564102 89.0230441,150.594125 C85.8707471,145.662153 83.5278237,140.148 81.3221624,134.700111 C79.1401671,129.299555 77.6066172,123.643406 75.4719536,117.144752 C68.8573364,125.510645 63.097058,133.426886 56.6575684,140.749114 C51.2096798,146.942478 45.3713039,152.939415 38.9933457,158.148278 C27.1911647,167.78503 16.6101439,167.832362 8.4170116,159.187211 C-0.348835267,149.943313 -0.732222738,133.052965 7.60290487,123.290784 C16.5888445,112.766561 27.0491694,115.175749 37.8881485,130.913568 C50.1967796,119.426144 59.0620232,105.477466 68.2136241,91.8080464 C70.6370116,88.1942645 68.0810951,84.2018283 67.3640186,80.3963527 C64.8861995,67.2523155 63.1065244,53.9118515 57.3107471,41.6529188 C55.7251323,38.2970951 54.5039722,33.3201578 49.5767332,34.280993 C45.492,35.0809002 45.5558979,39.6010858 45.2695406,43.0918051 C44.8482877,48.1989049 44.5145986,53.315471 44.3678701,58.4320371 C44.247174,62.7179304 43.239007,66.4240093 38.5862923,67.5481392 C33.7513503,68.7219675 30.1186357,66.3672111 27.5153875,62.5215035 C18.3945522,49.0437773 27.569819,15.8570951 42.962116,6.36707193 C58.936594,-3.48267285 77.6350162,3.18164269 88.2610023,22.4149142 C92.8782181,30.7808074 95.0649466,39.9986729 98.3048074,50.837652" id="Fill-14" fill="#0B0B09" mask="url(#mask-4)"></path>
                    </g>
                </g>
                <g id="Group-22" opacity="0.2" transform="translate(2.366589, 30.389374)">
                    <path d="M828.194088,555.737179 C794.36606,540.792167 750.82555,514.437828 724.08309,485.499174 C705.4178,465.300334 690.323694,443.08516 678.739239,419.644093 C623.798868,434.305114 564.953624,427.200613 515.861095,394.884835 C435.565086,342.029429 406.872557,233.819499 439.713717,140.530914 C423.216223,150.617318 403.277708,166.731425 390.195202,184.594441 L380.579749,185.264186 L380.570283,185.273652 C378.30309,179.650636 374.263323,174.964789 371.837568,169.578432 C365.128288,154.678385 357.877058,142.722376 346.427499,130.529708 C339.609355,123.266645 314.793299,90.4491508 307.43794,82.3980139 C294.963647,68.7451601 269.395016,30.6288724 265.636872,27.9759258 C262.711768,25.9146265 251.224343,14.5833968 247.977383,11.5115638 C244.576594,8.29063573 240.607824,4.99161021 236.941977,1.9552761 L233.784947,1.16720186 C226.928937,4.46622738 223.580213,10.2620046 228.232928,16.6186636 C234.852278,25.6590348 240.489494,34.4532807 247.591629,42.9753689 C258.248381,55.7644176 268.931165,68.8256241 274.007499,84.3906821 C279.284993,100.575787 290.405596,116.68516 302.12968,128.863629 C307.596501,134.541077 312.33678,141.626645 318.284019,146.622515 C323.793439,151.25393 326.962302,156.346831 331.596084,162.097643 C337.200167,169.050682 344.127174,172.221912 350.715759,177.958524 C356.485503,182.982794 365.795666,189.924 368.779935,197.16813 L380.601049,203.193466 C379.368056,205.382561 378.158729,207.616622 376.980167,209.905114 L366.205086,218.110079 C366.205086,218.110079 342.009077,195.62748 335.650051,189.997364 C323.978032,179.657735 304.934088,164.980148 292.556826,154.995508 C280.551118,145.306691 225.755109,115.608362 210.514274,104.774116 C181.729448,84.3125847 158.754599,74.0747193 126.209262,59.8041856 C107.525039,51.61342 81.7315824,50.1769002 61.4191462,48.103768 C51.5812343,47.0979675 39.98258,44.3243248 30.3623944,41.8228399 C20.8226729,39.3426543 16.2409559,32.7540696 9.35418097,26.4092436 L3.49687239,33.6557401 C-0.649392111,48.5084548 7.38281206,63.4865986 13.7631369,78.7984316 C10.7007703,95.3574571 22.4366868,110.787619 39.861884,118.964186 C48.2372436,122.897457 51.9267564,124.483072 58.7945986,130.797132 C63.7810023,135.385949 67.2125568,142.68451 71.7777077,147.39639 C82.8935777,158.869615 98.9745522,164.719824 115.062626,167.616529 C134.783415,171.166413 152.532835,164.854719 169.453949,156.216668 C175.308891,158.980845 179.462255,171.978153 186.853114,174.377875 C194.565828,176.884093 203.516269,184.331749 211.434877,186.416715 C219.168891,188.454348 233.460724,186.783536 242.458497,185.027527 C250.291907,183.49871 252.362673,178.050821 260.243415,176.718432 C277.320724,173.828826 286.900677,185.084325 302.548566,191.149893 C317.865132,197.087666 327.378821,211.02451 340.676687,221.260009 C344.742487,224.38864 352.157012,227.531471 358.828427,227.893559 L365.059657,234.115323 C363.864529,237.189522 360.338311,244.135462 359.23548,248.86864 L354.263276,248.86864 C354.263276,248.86864 342.252835,245.42052 336.338729,247.193095 C330.479053,248.944371 302.148613,251.308594 294.833485,251.308594 C285.788381,251.308594 274.07613,251.353559 265.447545,249.29936 C249.754691,245.564882 239.689587,241.773606 223.859471,238.621309 C207.073253,235.277318 187.87548,237.677039 169.889401,242.883536 C151.903323,248.087666 125.0378,257.170636 121.092696,258.952677 C117.725039,260.474394 134.087638,278.971657 142.595527,286.814534 C147.768891,291.583211 151.403972,296.619313 158.461142,299.662747 C162.242951,301.295694 166.346617,302.183165 170.282255,302.92864 C173.91497,303.614951 177.204529,305.046738 180.95084,305.27393 C186.225968,305.591053 193.044111,306.345995 197.095712,302.945206 C203.464204,307.171935 209.347545,310.274534 216.825968,312.480195 C224.732742,314.813652 233.571954,313.161773 241.675155,312.461262 C249.828056,311.753652 257.005921,310.324232 264.434645,307.936343 C268.057893,306.769615 268.935898,304.608919 271.354552,302.135833 C273.683276,299.757411 276.262858,298.545717 278.740677,296.299824 C281.343926,293.937968 283.275063,291.022329 285.544622,288.312585 C288.708752,284.533142 292.817151,282.173652 296.913717,279.537271 C301.990051,276.271378 305.012186,270.714626 310.325179,268.184742 C316.421513,265.280937 325.279657,266.038246 331.941606,267.110311 C337.058172,267.931517 345.902116,270.139545 350.502766,266.393234 C326.119796,370.4569 367.92323,502.313791 480.305457,535.225949 C507.026617,543.05226 573.96323,530.914023 627.033995,500.51755 C630.579146,498.489383 637.69548,496.487248 653.854552,497.36052 C661.006385,497.746274 670.333114,498.110729 678.310886,500.51755 C738.457754,518.65509 825.434645,567.965346 825.434645,567.965346 C825.434645,567.965346 833.996965,560.820613 828.194088,555.737179" id="Fill-18" fill="#000000"></path>
                    <path d="M658.261852,176.771916 C661.570343,183.843285 663.421016,191.735861 663.421016,200.056789 C663.421016,230.446162 638.787188,255.079991 608.397814,255.079991 C578.008441,255.079991 553.374613,230.446162 553.374613,200.056789 C553.374613,169.669782 578.008441,145.033587 608.397814,145.033587 C611.225889,145.033587 614.004265,145.248947 616.716376,145.660733 C616.716376,145.660733 629.145703,152.606673 639.03568,160.011731 C648.925657,167.419155 658.261852,176.771916 658.261852,176.771916" id="Fill-20" fill="#FFFFFF"></path>
                </g>
            </g>
        </g>
    </g>
</svg>